# xmcd
#
# Track frame offsets:
#  150
#  12749
#  26334
#  39337
#  53166
#  67474
#  81814
#  94647
#  109276
#  122083
#  134673
#  149253
#  163247
#  175452
#  188395
#  201130
#  215046
#  229341
#  241024
#  255350
#  267399
#  283245
#  297209
#  309947
#  324430
#
# Disc length: 4504 seconds
#
# Revision: 0
# Processed by: cddbd v1.5.2PL0 Copyright (c) Steve Scherf et al.
# Submitted via: AltoMP3_Maker 3.0
#
DISCID=79119619
DTITLE=Tampa Red and Georgia Tom - Music Making in Chicago 1928-1935, CD-A
DYEAR=1900
DGENRE=
TTITLE0=Through Train Blues
TTITLE1=Lonesome Man Blues GEORGIA TOM
TTITLE2=Grievin' Me Blues GEORGIA TOM
TTITLE3=It's Tight Like That
TTITLE4=It's Red Hot MADLYN DAVIS
TTITLE5=Too Black Bad MADLYN DAVIS
TTITLE6=Good Gordon Gin TAMPA RED'S HOKUM JUG BAND
TTITLE7=Down the Alley TAMPA RED'S HOKUM JUG BAND
TTITLE8=Long Ago Blues GEORGIA TOM
TTITLE9=It's Tight Like That TAMPA RED'S HOKUM JUG BAND
TTITLE10=How Long How Long Blues TAMPA RED'S HOKUM JUG BAND
TTITLE11=You Can't Come in TAMPA RED'S HOKUM JUG BAND
TTITLE12=It's Tight Like That No. 2
TTITLE13=Selling That Stuff THE HOKUM BOYS
TTITLE14=Beedle Um Bum THE HOKUM BOYS
TTITLE15=Juicy Lemon Blues
TTITLE16=Chicago Moan blues
TTITLE17=Strange Woman Blues
TTITLE18=Jelly Whippin' Blues
TTITLE19=Uncle Bud (Dog-Gone Him)
TTITLE20=Train Time Blues
TTITLE21=How Long, How Long Blues
TTITLE22=It's Tight Like That
TTITLE23=Sho' Is Hot TAMPA RED'S HOKUM JUG BAND
TTITLE24=Mess. Katie. Mess TAMPA RED'S HOKUM JUG BAND
EXTD=
EXTT0=
EXTT1=
EXTT2=
EXTT3=
EXTT4=
EXTT5=
EXTT6=
EXTT7=
EXTT8=
EXTT9=
EXTT10=
EXTT11=
EXTT12=
EXTT13=
EXTT14=
EXTT15=
EXTT16=
EXTT17=
EXTT18=
EXTT19=
EXTT20=
EXTT21=
EXTT22=
EXTT23=
EXTT24=
PLAYORDER=
